<svg xmlns="http://www.w3.org/2000/svg" xmlns:xlink="http://www.w3.org/1999/xlink" width="500" zoomAndPan="magnify" viewBox="0 0 375 374.999991" height="500" preserveAspectRatio="xMidYMid meet" version="1.2"><defs><clipPath id="ca938b60c7"><path d="M 127 61.3125 L 245 61.3125 L 245 220 L 127 220 Z M 127 61.3125 "/></clipPath></defs><g id="80c5725dbe"><rect x="0" width="375" y="0" height="374.999991" style="fill:#ffffff;fill-opacity:1;stroke:none;"/><rect x="0" width="375" y="0" height="374.999991" style="fill:#ffffff;fill-opacity:1;stroke:none;"/><g clip-rule="nonzero" clip-path="url(#ca938b60c7)"><path style=" stroke:none;fill-rule:nonzero;fill:#be1e2d;fill-opacity:1;" d="M 144.558594 202.765625 C 147.589844 203.453125 150.65625 203.808594 153.761719 203.835938 C 155.152344 203.835938 156.539062 203.765625 157.914062 203.65625 C 153.167969 200.453125 149.101562 196.546875 145.710938 191.9375 L 144.714844 180.742188 L 143.410156 180.742188 C 142.914062 180.742188 142.4375 180.648438 141.980469 180.457031 C 141.523438 180.269531 141.117188 180 140.765625 179.648438 C 140.417969 179.296875 140.144531 178.894531 139.957031 178.433594 C 139.765625 177.976562 139.671875 177.5 139.671875 177.003906 L 139.671875 157.75 C 139.671875 157.273438 139.71875 156.800781 139.808594 156.332031 C 139.902344 155.867188 140.039062 155.414062 140.222656 154.972656 C 140.40625 154.53125 140.628906 154.113281 140.890625 153.71875 C 141.15625 153.324219 141.457031 152.957031 141.792969 152.621094 C 142.132812 152.28125 142.496094 151.980469 142.894531 151.71875 C 143.289062 151.453125 143.707031 151.230469 144.148438 151.046875 C 144.585938 150.867188 145.042969 150.726562 145.507812 150.636719 C 145.976562 150.542969 146.449219 150.496094 146.921875 150.496094 L 150.242188 150.496094 C 150.558594 150.5 150.839844 150.40625 151.09375 150.222656 C 151.347656 150.035156 151.523438 149.792969 151.617188 149.492188 C 151.707031 149.191406 151.703125 148.890625 151.597656 148.59375 C 151.492188 148.296875 151.308594 148.0625 151.046875 147.886719 C 150.414062 147.484375 149.839844 147.007812 149.324219 146.460938 C 148.8125 145.914062 148.375 145.308594 148.011719 144.652344 C 147.652344 143.992188 147.378906 143.300781 147.191406 142.570312 C 147.003906 141.84375 146.910156 141.105469 146.914062 140.355469 L 146.914062 138.84375 C 146.910156 138.21875 146.976562 137.601562 147.105469 136.992188 C 147.234375 136.378906 147.425781 135.789062 147.679688 135.21875 C 147.929688 134.648438 148.238281 134.113281 148.605469 133.605469 C 148.96875 133.101562 149.382812 132.640625 149.847656 132.21875 C 150.308594 131.800781 150.808594 131.433594 151.347656 131.121094 C 151.886719 130.804688 152.453125 130.550781 153.042969 130.355469 C 153.636719 130.160156 154.242188 130.027344 154.863281 129.957031 C 155.480469 129.890625 156.101562 129.886719 156.722656 129.945312 C 161.371094 130.390625 164.773438 134.546875 164.773438 139.222656 L 164.773438 140.371094 C 164.773438 141.121094 164.679688 141.863281 164.496094 142.589844 C 164.308594 143.316406 164.035156 144.007812 163.671875 144.667969 C 163.3125 145.328125 162.875 145.929688 162.359375 146.476562 C 161.847656 147.023438 161.273438 147.5 160.640625 147.902344 C 160.382812 148.082031 160.199219 148.320312 160.097656 148.613281 C 159.996094 148.910156 159.992188 149.207031 160.085938 149.507812 C 160.175781 149.804688 160.351562 150.050781 160.601562 150.234375 C 160.855469 150.421875 161.136719 150.515625 161.449219 150.515625 L 164.769531 150.515625 C 165.929688 150.515625 167.027344 150.78125 168.0625 151.316406 C 169.09375 151.847656 169.949219 152.582031 170.628906 153.527344 C 169.980469 153.730469 169.351562 153.980469 168.746094 154.28125 C 168.136719 154.582031 167.558594 154.929688 167.003906 155.320312 C 166.453125 155.714844 165.933594 156.148438 165.453125 156.625 C 164.96875 157.097656 164.523438 157.609375 164.121094 158.15625 C 163.71875 158.699219 163.363281 159.273438 163.050781 159.875 C 162.742188 160.476562 162.480469 161.101562 162.265625 161.746094 C 162.054688 162.386719 161.894531 163.046875 161.785156 163.714844 C 161.679688 164.382812 161.625 165.058594 161.621094 165.734375 L 161.621094 192.242188 C 161.625 192.851562 161.710938 193.449219 161.890625 194.03125 C 162.066406 194.613281 162.324219 195.15625 162.660156 195.664062 C 163 196.171875 163.402344 196.617188 163.871094 197.003906 C 164.339844 197.394531 164.855469 197.707031 165.417969 197.941406 L 164.992188 202.65625 C 167.632812 202.09375 170.210938 201.324219 172.734375 200.355469 L 171.632812 194.785156 L 167.804688 194.785156 C 167.46875 194.785156 167.144531 194.722656 166.832031 194.59375 C 166.519531 194.464844 166.242188 194.28125 166.003906 194.042969 C 165.765625 193.804688 165.582031 193.527344 165.453125 193.214844 C 165.324219 192.90625 165.261719 192.578125 165.261719 192.242188 L 165.261719 165.71875 C 165.261719 165.117188 165.320312 164.519531 165.441406 163.929688 C 165.558594 163.34375 165.730469 162.769531 165.960938 162.214844 C 166.191406 161.660156 166.472656 161.132812 166.808594 160.632812 C 167.144531 160.132812 167.523438 159.667969 167.949219 159.246094 C 168.375 158.820312 168.835938 158.441406 169.335938 158.105469 C 169.835938 157.773438 170.363281 157.492188 170.917969 157.261719 C 171.472656 157.03125 172.046875 156.855469 172.636719 156.738281 C 173.226562 156.621094 173.820312 156.5625 174.421875 156.5625 L 178.617188 156.5625 C 179.011719 156.566406 179.371094 156.449219 179.695312 156.214844 C 180.015625 155.980469 180.234375 155.671875 180.351562 155.292969 C 180.46875 154.914062 180.460938 154.535156 180.332031 154.160156 C 180.199219 153.785156 179.96875 153.484375 179.640625 153.261719 C 178.839844 152.753906 178.113281 152.152344 177.464844 151.460938 C 176.8125 150.769531 176.261719 150.007812 175.804688 149.175781 C 175.347656 148.34375 175 147.46875 174.765625 146.550781 C 174.53125 145.628906 174.410156 144.695312 174.410156 143.746094 L 174.410156 141.816406 C 174.410156 141.074219 174.484375 140.339844 174.628906 139.613281 C 174.773438 138.886719 174.988281 138.179688 175.269531 137.496094 C 175.554688 136.8125 175.902344 136.164062 176.316406 135.546875 C 176.726562 134.929688 177.195312 134.359375 177.71875 133.835938 C 178.242188 133.3125 178.8125 132.847656 179.429688 132.433594 C 180.046875 132.023438 180.695312 131.675781 181.382812 131.394531 C 182.066406 131.109375 182.773438 130.898438 183.5 130.753906 C 184.226562 130.609375 184.960938 130.539062 185.699219 130.539062 C 185.757812 130.539062 185.816406 130.539062 185.871094 130.539062 C 185.929688 130.539062 185.988281 130.539062 186.046875 130.539062 C 186.785156 130.539062 187.519531 130.609375 188.246094 130.753906 C 188.976562 130.894531 189.679688 131.109375 190.367188 131.390625 C 191.050781 131.675781 191.703125 132.023438 192.320312 132.433594 C 192.9375 132.84375 193.507812 133.3125 194.03125 133.835938 C 194.554688 134.359375 195.023438 134.929688 195.4375 135.542969 C 195.847656 136.160156 196.195312 136.8125 196.480469 137.496094 C 196.765625 138.179688 196.976562 138.886719 197.121094 139.613281 C 197.265625 140.339844 197.339844 141.074219 197.339844 141.816406 L 197.339844 143.730469 C 197.339844 144.679688 197.222656 145.613281 196.988281 146.53125 C 196.753906 147.449219 196.40625 148.324219 195.949219 149.15625 C 195.496094 149.988281 194.941406 150.75 194.292969 151.445312 C 193.644531 152.136719 192.917969 152.738281 192.117188 153.246094 C 191.789062 153.46875 191.558594 153.765625 191.425781 154.140625 C 191.296875 154.515625 191.289062 154.894531 191.40625 155.273438 C 191.523438 155.652344 191.742188 155.960938 192.058594 156.195312 C 192.378906 156.429688 192.738281 156.546875 193.136719 156.546875 L 197.335938 156.546875 C 197.933594 156.546875 198.53125 156.605469 199.121094 156.722656 C 199.710938 156.839844 200.28125 157.011719 200.839844 157.242188 C 201.394531 157.472656 201.921875 157.753906 202.421875 158.089844 C 202.921875 158.421875 203.382812 158.800781 203.808594 159.226562 C 204.234375 159.652344 204.613281 160.113281 204.949219 160.613281 C 205.285156 161.113281 205.566406 161.640625 205.796875 162.195312 C 206.027344 162.753906 206.199219 163.324219 206.316406 163.914062 C 206.4375 164.503906 206.496094 165.097656 206.496094 165.699219 L 206.496094 192.242188 C 206.496094 192.578125 206.429688 192.902344 206.300781 193.214844 C 206.171875 193.527344 205.988281 193.800781 205.75 194.039062 C 205.511719 194.277344 205.238281 194.457031 204.925781 194.585938 C 204.613281 194.714844 204.289062 194.78125 203.953125 194.777344 L 200.125 194.777344 L 198.359375 203.675781 C 198.984375 207.226562 197.507812 211.253906 194.445312 213.945312 C 191.855469 216.25 189.027344 218.21875 185.964844 219.847656 C 191.511719 219.835938 196.949219 219.046875 202.269531 217.472656 C 204.621094 216.019531 206.808594 214.347656 208.828125 212.460938 C 210.664062 210.667969 212.710938 209.160156 214.972656 207.941406 C 216.585938 207.074219 218.3125 206.625 220.148438 206.59375 C 220.894531 206.597656 221.628906 206.691406 222.347656 206.875 C 223.785156 205.71875 225.164062 204.5 226.480469 203.210938 C 227.800781 201.925781 229.058594 200.578125 230.25 199.171875 C 231.441406 197.765625 232.5625 196.308594 233.617188 194.796875 C 234.667969 193.28125 235.648438 191.722656 236.554688 190.117188 C 237.460938 188.511719 238.285156 186.867188 239.035156 185.183594 C 239.785156 183.5 240.453125 181.785156 241.039062 180.035156 C 241.625 178.289062 242.125 176.519531 242.542969 174.722656 C 242.960938 172.929688 243.292969 171.117188 243.539062 169.289062 C 243.785156 167.464844 243.945312 165.628906 244.015625 163.789062 C 244.089844 161.945312 244.074219 160.105469 243.96875 158.265625 C 243.867188 156.425781 243.675781 154.59375 243.398438 152.773438 C 243.121094 150.949219 242.761719 149.144531 242.3125 147.359375 C 241.863281 145.570312 241.332031 143.808594 240.714844 142.070312 C 240.101562 140.332031 239.402344 138.628906 238.625 136.957031 C 237.847656 135.285156 236.996094 133.65625 236.0625 132.066406 C 235.128906 130.476562 234.125 128.933594 233.046875 127.4375 L 188.695312 62.878906 C 188.53125 62.636719 188.339844 62.417969 188.121094 62.222656 C 187.902344 62.027344 187.664062 61.863281 187.402344 61.726562 C 187.144531 61.589844 186.871094 61.488281 186.589844 61.417969 C 186.304688 61.347656 186.015625 61.3125 185.722656 61.3125 C 185.429688 61.3125 185.140625 61.347656 184.859375 61.417969 C 184.574219 61.488281 184.300781 61.589844 184.042969 61.726562 C 183.785156 61.863281 183.546875 62.027344 183.328125 62.222656 C 183.109375 62.417969 182.917969 62.636719 182.75 62.878906 L 138.402344 127.4375 C 137.394531 128.828125 136.453125 130.261719 135.578125 131.734375 C 134.699219 133.207031 133.886719 134.714844 133.144531 136.261719 C 132.398438 137.808594 131.722656 139.382812 131.117188 140.988281 C 130.511719 142.589844 129.980469 144.21875 129.519531 145.871094 C 129.058594 147.523438 128.671875 149.191406 128.355469 150.878906 C 128.042969 152.566406 127.804688 154.261719 127.640625 155.96875 C 127.480469 157.675781 127.390625 159.386719 127.378906 161.101562 C 127.367188 162.816406 127.433594 164.53125 127.570312 166.238281 C 127.710938 167.949219 127.925781 169.648438 128.214844 171.339844 C 128.507812 173.03125 128.871094 174.703125 129.308594 176.363281 C 129.746094 178.019531 130.257812 179.65625 130.84375 181.269531 C 131.425781 182.882812 132.078125 184.464844 132.800781 186.019531 C 133.523438 187.574219 134.316406 189.097656 135.171875 190.582031 C 136.03125 192.066406 136.953125 193.511719 137.9375 194.914062 C 138.925781 196.316406 139.96875 197.675781 141.074219 198.984375 C 142.179688 200.296875 143.34375 201.558594 144.558594 202.765625 Z M 206.976562 138.84375 C 206.976562 138.21875 207.042969 137.601562 207.171875 136.992188 C 207.300781 136.378906 207.492188 135.789062 207.742188 135.21875 C 207.996094 134.648438 208.304688 134.113281 208.671875 133.605469 C 209.035156 133.101562 209.449219 132.640625 209.910156 132.21875 C 210.375 131.800781 210.875 131.433594 211.414062 131.121094 C 211.953125 130.804688 212.515625 130.550781 213.109375 130.355469 C 213.703125 130.160156 214.308594 130.027344 214.925781 129.957031 C 215.546875 129.890625 216.167969 129.886719 216.789062 129.945312 C 221.433594 130.390625 224.839844 134.546875 224.839844 139.222656 L 224.839844 140.371094 C 224.839844 141.121094 224.746094 141.863281 224.558594 142.589844 C 224.375 143.316406 224.101562 144.007812 223.738281 144.667969 C 223.378906 145.328125 222.941406 145.929688 222.425781 146.476562 C 221.914062 147.023438 221.339844 147.5 220.703125 147.902344 C 220.441406 148.078125 220.261719 148.316406 220.15625 148.613281 C 220.050781 148.910156 220.042969 149.207031 220.136719 149.507812 C 220.230469 149.808594 220.402344 150.054688 220.65625 150.238281 C 220.910156 150.425781 221.195312 150.515625 221.511719 150.515625 L 224.828125 150.515625 C 225.304688 150.515625 225.777344 150.5625 226.242188 150.652344 C 226.710938 150.746094 227.164062 150.882812 227.601562 151.066406 C 228.042969 151.25 228.460938 151.472656 228.855469 151.738281 C 229.253906 152 229.617188 152.300781 229.957031 152.636719 C 230.292969 152.976562 230.59375 153.339844 230.859375 153.738281 C 231.121094 154.132812 231.34375 154.550781 231.527344 154.992188 C 231.710938 155.429688 231.847656 155.882812 231.941406 156.351562 C 232.03125 156.816406 232.078125 157.289062 232.078125 157.765625 L 232.078125 177.003906 C 232.078125 177.5 231.984375 177.976562 231.796875 178.433594 C 231.605469 178.894531 231.335938 179.296875 230.984375 179.648438 C 230.632812 180 230.230469 180.269531 229.773438 180.457031 C 229.3125 180.648438 228.835938 180.742188 228.339844 180.742188 L 227.035156 180.742188 L 226.074219 191.378906 C 223.652344 194.796875 220.839844 197.859375 217.644531 200.566406 C 214.445312 203.273438 210.960938 205.539062 207.191406 207.367188 L 206.339844 197.953125 C 206.902344 197.71875 207.417969 197.40625 207.886719 197.015625 C 208.355469 196.628906 208.757812 196.183594 209.097656 195.675781 C 209.433594 195.167969 209.691406 194.625 209.867188 194.042969 C 210.046875 193.457031 210.132812 192.863281 210.136719 192.253906 L 210.136719 165.71875 C 210.132812 165.039062 210.078125 164.367188 209.972656 163.695312 C 209.863281 163.027344 209.703125 162.371094 209.492188 161.726562 C 209.277344 161.082031 209.015625 160.460938 208.707031 159.859375 C 208.394531 159.257812 208.035156 158.683594 207.632812 158.136719 C 207.230469 157.589844 206.789062 157.082031 206.304688 156.605469 C 205.820312 156.132812 205.304688 155.695312 204.75 155.304688 C 204.199219 154.910156 203.621094 154.5625 203.011719 154.261719 C 202.40625 153.960938 201.777344 153.710938 201.128906 153.511719 C 201.808594 152.566406 202.664062 151.828125 203.695312 151.296875 C 204.730469 150.765625 205.828125 150.5 206.988281 150.496094 L 210.308594 150.496094 C 210.621094 150.5 210.90625 150.40625 211.160156 150.222656 C 211.414062 150.035156 211.589844 149.792969 211.679688 149.492188 C 211.773438 149.191406 211.769531 148.890625 211.664062 148.59375 C 211.558594 148.296875 211.375 148.0625 211.113281 147.886719 C 210.480469 147.484375 209.90625 147.007812 209.390625 146.460938 C 208.878906 145.914062 208.441406 145.308594 208.078125 144.652344 C 207.71875 143.992188 207.445312 143.300781 207.257812 142.570312 C 207.070312 141.84375 206.976562 141.105469 206.976562 140.355469 Z M 167.441406 99.167969 L 178.910156 99.167969 L 178.910156 87.695312 L 192.539062 87.695312 L 192.539062 99.160156 L 204 99.160156 L 204 112.78125 L 192.539062 112.78125 L 192.539062 124.25 L 178.910156 124.25 L 178.910156 112.78125 L 167.441406 112.78125 Z M 167.441406 99.167969 "/></g><path style=" stroke:none;fill-rule:nonzero;fill:#58595b;fill-opacity:1;" d="M 197.59375 75.839844 L 216.957031 104.011719 C 218.109375 104.644531 219.246094 105.3125 220.363281 106.015625 C 221.476562 106.714844 222.570312 107.449219 223.640625 108.21875 C 224.710938 108.988281 225.757812 109.785156 226.777344 110.617188 C 227.800781 111.449219 228.796875 112.3125 229.765625 113.203125 C 230.734375 114.097656 231.675781 115.015625 232.589844 115.96875 C 233.5 116.917969 234.386719 117.890625 235.238281 118.894531 C 236.09375 119.898438 236.917969 120.925781 237.707031 121.980469 C 238.5 123.035156 239.257812 124.109375 239.984375 125.210938 C 240.710938 126.308594 241.402344 127.429688 242.058594 128.570312 C 242.714844 129.710938 243.339844 130.871094 243.925781 132.050781 C 244.511719 133.230469 245.0625 134.425781 245.578125 135.640625 C 246.09375 136.851562 246.570312 138.078125 247.011719 139.320312 C 247.449219 140.5625 247.851562 141.816406 248.214844 143.082031 C 248.578125 144.347656 248.902344 145.625 249.1875 146.910156 C 249.476562 148.199219 249.722656 149.492188 249.929688 150.792969 C 250.136719 152.09375 250.304688 153.398438 250.429688 154.710938 C 250.558594 156.019531 250.644531 157.335938 250.695312 158.652344 C 250.742188 159.96875 250.75 161.285156 250.71875 162.601562 C 250.683594 163.917969 250.613281 165.234375 250.5 166.546875 C 250.386719 167.859375 250.234375 169.167969 250.042969 170.46875 C 249.851562 171.773438 249.621094 173.070312 249.351562 174.359375 C 249.078125 175.648438 248.769531 176.925781 248.421875 178.199219 C 248.074219 179.46875 247.6875 180.726562 247.261719 181.972656 C 246.835938 183.222656 246.375 184.453125 245.875 185.671875 C 245.375 186.890625 244.835938 188.09375 244.265625 189.28125 C 243.691406 190.464844 243.082031 191.632812 242.4375 192.78125 C 241.792969 193.933594 241.113281 195.058594 240.402344 196.167969 C 239.6875 197.277344 238.941406 198.359375 238.164062 199.421875 C 237.386719 200.484375 236.574219 201.523438 235.734375 202.535156 C 234.890625 203.550781 234.019531 204.535156 233.117188 205.496094 C 232.214844 206.457031 231.285156 207.390625 230.324219 208.292969 C 229.367188 209.195312 228.382812 210.070312 227.371094 210.914062 C 227.425781 211.015625 227.496094 211.113281 227.546875 211.222656 C 227.679688 211.515625 227.800781 211.796875 227.90625 212.113281 C 228.488281 212.015625 229.078125 211.964844 229.671875 211.964844 C 230.375 211.945312 231.070312 212.027344 231.753906 212.199219 C 232.4375 212.375 233.082031 212.640625 233.691406 212.996094 C 234.300781 213.351562 234.851562 213.785156 235.339844 214.292969 C 235.828125 214.800781 236.238281 215.367188 236.570312 215.992188 C 236.871094 216.570312 237.097656 217.175781 237.25 217.808594 C 238.082031 217.914062 238.878906 218.144531 239.640625 218.503906 C 240.398438 218.859375 241.082031 219.328125 241.695312 219.902344 C 242.304688 220.480469 242.8125 221.136719 243.214844 221.875 C 243.617188 222.613281 243.894531 223.394531 244.046875 224.21875 C 245.53125 222.847656 246.96875 221.421875 248.355469 219.949219 C 249.738281 218.476562 251.070312 216.953125 252.351562 215.386719 C 253.628906 213.816406 254.851562 212.207031 256.015625 210.554688 C 257.179688 208.898438 258.285156 207.207031 259.328125 205.472656 C 260.375 203.742188 261.355469 201.976562 262.277344 200.171875 C 263.199219 198.371094 264.054688 196.539062 264.84375 194.679688 C 265.636719 192.816406 266.359375 190.929688 267.019531 189.015625 C 267.675781 187.105469 268.265625 185.171875 268.789062 183.214844 C 269.308594 181.261719 269.761719 179.289062 270.144531 177.304688 C 270.527344 175.316406 270.839844 173.320312 271.082031 171.3125 C 271.320312 169.304688 271.492188 167.289062 271.589844 165.269531 C 271.691406 163.25 271.71875 161.226562 271.675781 159.203125 C 271.632812 157.183594 271.519531 155.164062 271.332031 153.148438 C 271.144531 151.132812 270.890625 149.128906 270.5625 147.132812 C 270.234375 145.136719 269.839844 143.15625 269.371094 141.1875 C 268.902344 139.21875 268.367188 137.269531 267.761719 135.339844 C 267.160156 133.40625 266.488281 131.5 265.746094 129.617188 C 265.007812 127.734375 264.203125 125.878906 263.332031 124.054688 C 262.464844 122.226562 261.53125 120.433594 260.53125 118.675781 C 259.535156 116.914062 258.480469 115.191406 257.359375 113.503906 C 256.242188 111.820312 255.066406 110.175781 253.832031 108.574219 C 252.597656 106.96875 251.308594 105.414062 249.964844 103.902344 C 248.621094 102.390625 247.222656 100.925781 245.777344 99.511719 C 244.328125 98.097656 242.832031 96.738281 241.289062 95.429688 C 239.746094 94.125 238.160156 92.871094 236.527344 91.675781 C 234.894531 90.480469 233.222656 89.34375 231.511719 88.265625 C 229.800781 87.1875 228.050781 86.171875 226.265625 85.21875 C 224.484375 84.261719 222.667969 83.371094 220.820312 82.546875 C 218.976562 81.71875 217.101562 80.957031 215.203125 80.265625 C 213.300781 79.570312 211.378906 78.945312 209.433594 78.386719 C 207.492188 77.828125 205.527344 77.335938 203.550781 76.917969 C 201.570312 76.496094 199.578125 76.148438 197.574219 75.867188 Z M 197.59375 75.839844 "/><path style=" stroke:none;fill-rule:nonzero;fill:#58595b;fill-opacity:1;" d="M 132.957031 198.941406 C 132.285156 198.011719 131.640625 197.0625 131.023438 196.097656 C 130.402344 195.132812 129.8125 194.152344 129.242188 193.15625 C 128.675781 192.164062 128.136719 191.152344 127.621094 190.128906 C 127.109375 189.101562 126.621094 188.066406 126.164062 187.015625 C 125.703125 185.964844 125.273438 184.902344 124.871094 183.828125 C 124.46875 182.757812 124.09375 181.675781 123.75 180.582031 C 123.402344 179.488281 123.089844 178.386719 122.800781 177.277344 C 122.515625 176.167969 122.257812 175.050781 122.027344 173.929688 C 121.800781 172.804688 121.601562 171.675781 121.433594 170.542969 C 121.265625 169.410156 121.128906 168.273438 121.019531 167.128906 C 120.910156 165.988281 120.835938 164.847656 120.785156 163.703125 C 120.738281 162.554688 120.722656 161.410156 120.734375 160.265625 C 120.746094 159.117188 120.792969 157.972656 120.863281 156.832031 C 120.9375 155.6875 121.042969 154.546875 121.175781 153.40625 C 121.3125 152.269531 121.476562 151.136719 121.667969 150.003906 C 121.863281 148.875 122.085938 147.753906 122.339844 146.632812 C 122.59375 145.515625 122.875 144.40625 123.1875 143.304688 C 123.5 142.199219 123.84375 141.105469 124.210938 140.023438 C 124.582031 138.9375 124.980469 137.863281 125.410156 136.800781 C 125.835938 135.738281 126.289062 134.683594 126.773438 133.644531 C 127.253906 132.605469 127.765625 131.578125 128.300781 130.566406 C 128.839844 129.554688 129.402344 128.558594 129.992188 127.574219 C 130.582031 126.589844 131.199219 125.625 131.839844 124.675781 C 132.480469 123.726562 133.144531 122.792969 133.835938 121.878906 C 134.527344 120.960938 135.238281 120.066406 135.976562 119.1875 C 136.714844 118.3125 137.476562 117.453125 138.257812 116.617188 C 139.042969 115.78125 139.847656 114.964844 140.671875 114.171875 C 141.5 113.375 142.34375 112.605469 143.210938 111.855469 C 144.078125 111.105469 144.964844 110.378906 145.871094 109.675781 C 146.777344 108.972656 147.699219 108.296875 148.640625 107.640625 C 149.582031 106.988281 150.542969 106.359375 151.515625 105.757812 C 152.492188 105.152344 153.480469 104.574219 154.484375 104.023438 L 173.847656 75.851562 C 172.445312 76.046875 171.046875 76.277344 169.652344 76.542969 C 168.261719 76.808594 166.875 77.109375 165.496094 77.441406 C 164.117188 77.777344 162.75 78.144531 161.390625 78.546875 C 160.03125 78.949219 158.679688 79.382812 157.34375 79.851562 C 156.003906 80.320312 154.679688 80.820312 153.367188 81.355469 C 152.050781 81.886719 150.753906 82.453125 149.46875 83.050781 C 148.179688 83.652344 146.910156 84.28125 145.65625 84.941406 C 144.402344 85.601562 143.164062 86.292969 141.945312 87.015625 C 140.726562 87.738281 139.523438 88.488281 138.339844 89.269531 C 137.15625 90.050781 135.992188 90.863281 134.851562 91.699219 C 133.707031 92.539062 132.585938 93.40625 131.484375 94.300781 C 130.386719 95.195312 129.308594 96.117188 128.253906 97.0625 C 127.199219 98.011719 126.167969 98.984375 125.160156 99.980469 C 124.15625 100.980469 123.171875 102.003906 122.21875 103.050781 C 121.261719 104.097656 120.332031 105.167969 119.429688 106.257812 C 118.527344 107.351562 117.648438 108.46875 116.800781 109.601562 C 115.953125 110.738281 115.132812 111.894531 114.34375 113.074219 C 113.550781 114.25 112.789062 115.445312 112.058594 116.660156 C 111.328125 117.871094 110.625 119.105469 109.953125 120.351562 C 109.285156 121.601562 108.644531 122.867188 108.035156 124.148438 C 107.425781 125.429688 106.851562 126.722656 106.304688 128.03125 C 105.761719 129.339844 105.25 130.664062 104.769531 131.996094 C 104.292969 133.332031 103.84375 134.675781 103.433594 136.03125 C 103.019531 137.390625 102.640625 138.753906 102.296875 140.128906 C 101.949219 141.503906 101.640625 142.886719 101.363281 144.277344 C 101.085938 145.667969 100.84375 147.066406 100.636719 148.46875 C 100.429688 149.871094 100.253906 151.277344 100.117188 152.6875 C 99.980469 154.097656 99.875 155.511719 99.808594 156.929688 C 99.738281 158.34375 99.707031 159.761719 99.707031 161.179688 C 99.707031 162.597656 99.746094 164.015625 99.816406 165.429688 C 99.886719 166.84375 99.996094 168.257812 100.136719 169.667969 C 100.277344 171.082031 100.453125 172.488281 100.664062 173.886719 C 107.820312 183.566406 120.054688 193.300781 132.957031 198.941406 Z M 132.957031 198.941406 "/><path style=" stroke:none;fill-rule:nonzero;fill:#be1e2d;fill-opacity:1;" d="M 231.78125 224.242188 C 236.152344 218.054688 231.03125 211.988281 222.347656 219.699219 C 226.582031 214.65625 223.234375 208.367188 216.839844 211.621094 C 212.515625 213.824219 210.871094 217.03125 204.351562 221.023438 C 189.398438 230.164062 171.632812 225.53125 166.96875 220.894531 C 178.304688 219.746094 185.261719 216.515625 191.699219 210.851562 C 196.875 206.285156 195.832031 194.984375 176.242188 203.375 C 145.582031 216.507812 113.386719 198.992188 102.351562 182.363281 C 102.792969 184.085938 103.285156 185.792969 103.832031 187.480469 C 104.378906 189.171875 104.976562 190.84375 105.628906 192.496094 C 106.28125 194.152344 106.980469 195.78125 107.730469 197.390625 C 108.484375 199.003906 109.285156 200.585938 110.136719 202.148438 C 110.984375 203.707031 111.882812 205.242188 112.828125 206.746094 C 113.773438 208.25 114.761719 209.722656 115.796875 211.167969 C 116.835938 212.609375 117.914062 214.019531 119.039062 215.398438 C 120.160156 216.773438 121.328125 218.113281 122.535156 219.417969 C 123.742188 220.722656 124.984375 221.988281 126.269531 223.214844 C 127.554688 224.441406 128.878906 225.628906 130.238281 226.773438 C 131.59375 227.917969 132.988281 229.023438 134.414062 230.082031 C 135.84375 231.140625 137.300781 232.152344 138.789062 233.121094 C 140.28125 234.089844 141.796875 235.011719 143.34375 235.886719 C 144.890625 236.761719 146.464844 237.585938 148.0625 238.363281 C 149.660156 239.140625 151.28125 239.867188 152.921875 240.542969 C 154.566406 241.222656 156.230469 241.847656 157.910156 242.421875 C 159.59375 242.992188 161.289062 243.515625 163.003906 243.984375 C 164.71875 244.453125 166.445312 244.867188 168.183594 245.226562 C 169.925781 245.589844 171.675781 245.898438 173.433594 246.152344 C 175.191406 246.402344 176.957031 246.601562 178.726562 246.746094 C 180.5 246.890625 182.273438 246.980469 184.050781 247.011719 C 185.824219 247.046875 187.601562 247.023438 189.378906 246.949219 C 191.152344 246.871094 192.925781 246.742188 194.691406 246.554688 C 196.457031 246.371094 198.21875 246.128906 199.96875 245.835938 C 201.722656 245.539062 203.464844 245.191406 205.195312 244.789062 C 206.925781 244.386719 208.640625 243.929688 210.34375 243.421875 C 212.046875 242.910156 213.730469 242.351562 215.398438 241.738281 C 217.066406 241.125 218.714844 240.457031 220.339844 239.742188 C 221.96875 239.027344 223.570312 238.261719 225.148438 237.449219 C 226.726562 236.632812 228.28125 235.769531 229.804688 234.859375 C 231.332031 233.949219 232.828125 232.988281 234.292969 231.988281 C 235.761719 230.984375 237.195312 229.933594 238.59375 228.84375 C 242.585938 225.457031 237.910156 218.140625 231.78125 224.242188 Z M 231.78125 224.242188 "/><g style="fill:#be1e2d;fill-opacity:1;"><g transform="translate(83.89655, 287.713018)"><path style="stroke:none" d="M 7.1875 -9.59375 L 7.1875 0 L 1.734375 0 L 1.734375 -23.90625 L 7.1875 -23.90625 L 7.1875 -14.375 L 14.890625 -14.375 L 14.890625 -23.90625 L 20.34375 -23.90625 L 20.34375 0 L 14.890625 0 L 14.890625 -9.59375 Z M 7.1875 -9.59375 "/></g></g><g style="fill:#be1e2d;fill-opacity:1;"><g transform="translate(105.961742, 287.713018)"><path style="stroke:none" d="M 15.40625 -23.90625 L 15.40625 -19.125 L 7.1875 -19.125 L 7.1875 -14.375 L 15.0625 -14.375 L 15.0625 -9.59375 L 7.1875 -9.59375 L 7.1875 -4.78125 L 15.40625 -4.78125 L 15.40625 0 L 1.734375 0 L 1.734375 -23.90625 Z M 15.40625 -23.90625 "/></g></g><g style="fill:#be1e2d;fill-opacity:1;"><g transform="translate(122.75677, 287.713018)"><path style="stroke:none" d="M 13.875 -23.90625 L 23.515625 0 L 17.671875 0 L 15.90625 -4.78125 L 6.8125 -4.78125 L 5.046875 0 L -0.8125 0 L 8.828125 -23.90625 Z M 14.046875 -9.5625 L 11.390625 -16.515625 L 11.328125 -16.515625 L 8.65625 -9.5625 Z M 14.046875 -9.5625 "/></g></g><g style="fill:#be1e2d;fill-opacity:1;"><g transform="translate(145.45902, 287.713018)"><path style="stroke:none" d="M 7.1875 -23.90625 L 7.1875 -4.78125 L 15.40625 -4.78125 L 15.40625 0 L 1.734375 0 L 1.734375 -23.90625 Z M 7.1875 -23.90625 "/></g></g><g style="fill:#be1e2d;fill-opacity:1;"><g transform="translate(161.819699, 287.713018)"><path style="stroke:none" d="M 0.234375 -19.125 L 0.234375 -23.90625 L 17.03125 -23.90625 L 17.03125 -19.125 L 11.359375 -19.125 L 11.359375 0 L 5.90625 0 L 5.90625 -19.125 Z M 0.234375 -19.125 "/></g></g><g style="fill:#be1e2d;fill-opacity:1;"><g transform="translate(179.078041, 287.713018)"><path style="stroke:none" d="M 7.1875 -9.59375 L 7.1875 0 L 1.734375 0 L 1.734375 -23.90625 L 7.1875 -23.90625 L 7.1875 -14.375 L 14.890625 -14.375 L 14.890625 -23.90625 L 20.34375 -23.90625 L 20.34375 0 L 14.890625 0 L 14.890625 -9.59375 Z M 7.1875 -9.59375 "/></g></g><g style="fill:#be1e2d;fill-opacity:1;"><g transform="translate(201.143233, 287.713018)"><path style="stroke:none" d=""/></g></g><g style="fill:#be1e2d;fill-opacity:1;"><g transform="translate(209.048479, 287.713018)"><path style="stroke:none" d="M 14.453125 -4.921875 C 15.285156 -4.921875 16.09375 -5.046875 16.875 -5.296875 C 17.65625 -5.546875 18.226562 -5.789062 18.59375 -6.03125 L 19.140625 -6.40625 L 21.46875 -1.765625 C 21.382812 -1.710938 21.273438 -1.632812 21.140625 -1.53125 C 21.003906 -1.4375 20.691406 -1.257812 20.203125 -1 C 19.710938 -0.738281 19.1875 -0.507812 18.625 -0.3125 C 18.0625 -0.125 17.328125 0.046875 16.421875 0.203125 C 15.515625 0.359375 14.578125 0.4375 13.609375 0.4375 C 11.390625 0.4375 9.285156 -0.109375 7.296875 -1.203125 C 5.304688 -2.296875 3.703125 -3.796875 2.484375 -5.703125 C 1.273438 -7.617188 0.671875 -9.6875 0.671875 -11.90625 C 0.671875 -13.582031 1.023438 -15.191406 1.734375 -16.734375 C 2.453125 -18.285156 3.40625 -19.609375 4.59375 -20.703125 C 5.78125 -21.804688 7.164062 -22.6875 8.75 -23.34375 C 10.332031 -24 11.953125 -24.328125 13.609375 -24.328125 C 15.160156 -24.328125 16.585938 -24.144531 17.890625 -23.78125 C 19.191406 -23.414062 20.113281 -23.050781 20.65625 -22.6875 L 21.46875 -22.125 L 19.140625 -17.5 C 19.015625 -17.613281 18.816406 -17.75 18.546875 -17.90625 C 18.273438 -18.070312 17.734375 -18.289062 16.921875 -18.5625 C 16.109375 -18.832031 15.285156 -18.96875 14.453125 -18.96875 C 13.140625 -18.96875 11.960938 -18.753906 10.921875 -18.328125 C 9.878906 -17.910156 9.050781 -17.351562 8.4375 -16.65625 C 7.832031 -15.957031 7.367188 -15.207031 7.046875 -14.40625 C 6.734375 -13.601562 6.578125 -12.789062 6.578125 -11.96875 C 6.578125 -10.144531 7.253906 -8.515625 8.609375 -7.078125 C 9.972656 -5.640625 11.921875 -4.921875 14.453125 -4.921875 Z M 14.453125 -4.921875 "/></g></g><g style="fill:#be1e2d;fill-opacity:1;"><g transform="translate(230.853066, 287.713018)"><path style="stroke:none" d="M 13.875 -23.90625 L 23.515625 0 L 17.671875 0 L 15.90625 -4.78125 L 6.8125 -4.78125 L 5.046875 0 L -0.8125 0 L 8.828125 -23.90625 Z M 14.046875 -9.5625 L 11.390625 -16.515625 L 11.328125 -16.515625 L 8.65625 -9.5625 Z M 14.046875 -9.5625 "/></g></g><g style="fill:#be1e2d;fill-opacity:1;"><g transform="translate(253.555316, 287.713018)"><path style="stroke:none" d="M 1.734375 -23.90625 L 10.28125 -23.90625 C 12.582031 -23.90625 14.457031 -23.289062 15.90625 -22.0625 C 17.351562 -20.832031 18.078125 -19.078125 18.078125 -16.796875 C 18.078125 -15.046875 17.632812 -13.578125 16.75 -12.390625 C 15.875 -11.203125 14.6875 -10.363281 13.1875 -9.875 L 21.40625 0 L 14.484375 0 L 7.1875 -9.4375 L 7.1875 0 L 1.734375 0 Z M 7.1875 -13.296875 L 7.828125 -13.296875 C 8.328125 -13.296875 8.75 -13.304688 9.09375 -13.328125 C 9.445312 -13.347656 9.84375 -13.414062 10.28125 -13.53125 C 10.726562 -13.644531 11.085938 -13.804688 11.359375 -14.015625 C 11.628906 -14.234375 11.859375 -14.546875 12.046875 -14.953125 C 12.242188 -15.359375 12.34375 -15.847656 12.34375 -16.421875 C 12.34375 -17.003906 12.242188 -17.5 12.046875 -17.90625 C 11.859375 -18.3125 11.628906 -18.617188 11.359375 -18.828125 C 11.085938 -19.035156 10.726562 -19.195312 10.28125 -19.3125 C 9.84375 -19.4375 9.445312 -19.503906 9.09375 -19.515625 C 8.75 -19.535156 8.328125 -19.546875 7.828125 -19.546875 L 7.1875 -19.546875 Z M 7.1875 -13.296875 "/></g></g><g style="fill:#be1e2d;fill-opacity:1;"><g transform="translate(274.288495, 287.713018)"><path style="stroke:none" d="M 15.40625 -23.90625 L 15.40625 -19.125 L 7.1875 -19.125 L 7.1875 -14.375 L 15.0625 -14.375 L 15.0625 -9.59375 L 7.1875 -9.59375 L 7.1875 -4.78125 L 15.40625 -4.78125 L 15.40625 0 L 1.734375 0 L 1.734375 -23.90625 Z M 15.40625 -23.90625 "/></g></g><g style="fill:#58595b;fill-opacity:1;"><g transform="translate(138.067431, 310.655627)"><path style="stroke:none" d="M 13.46875 -11.53125 L 13.46875 0 L 12.109375 0 L 12.109375 -8.46875 C 12.109375 -8.582031 12.109375 -8.703125 12.109375 -8.828125 C 12.117188 -8.960938 12.128906 -9.097656 12.140625 -9.234375 L 8.1875 -2.015625 C 8.0625 -1.773438 7.875 -1.65625 7.625 -1.65625 L 7.390625 -1.65625 C 7.140625 -1.65625 6.953125 -1.773438 6.828125 -2.015625 L 2.796875 -9.265625 C 2.828125 -8.972656 2.84375 -8.707031 2.84375 -8.46875 L 2.84375 0 L 1.46875 0 L 1.46875 -11.53125 L 2.625 -11.53125 C 2.757812 -11.53125 2.863281 -11.515625 2.9375 -11.484375 C 3.019531 -11.460938 3.09375 -11.390625 3.15625 -11.265625 L 7.140625 -4.171875 C 7.203125 -4.035156 7.265625 -3.898438 7.328125 -3.765625 C 7.390625 -3.628906 7.445312 -3.488281 7.5 -3.34375 C 7.5625 -3.488281 7.617188 -3.628906 7.671875 -3.765625 C 7.734375 -3.910156 7.800781 -4.046875 7.875 -4.171875 L 11.78125 -11.265625 C 11.84375 -11.390625 11.910156 -11.460938 11.984375 -11.484375 C 12.066406 -11.515625 12.175781 -11.53125 12.3125 -11.53125 Z M 13.46875 -11.53125 "/></g></g><g style="fill:#58595b;fill-opacity:1;"><g transform="translate(153.008821, 310.655627)"><path style="stroke:none" d="M 6.59375 -4.96875 C 6.59375 -5.300781 6.546875 -5.601562 6.453125 -5.875 C 6.359375 -6.15625 6.21875 -6.394531 6.03125 -6.59375 C 5.851562 -6.789062 5.632812 -6.941406 5.375 -7.046875 C 5.125 -7.160156 4.832031 -7.21875 4.5 -7.21875 C 3.8125 -7.21875 3.269531 -7.019531 2.875 -6.625 C 2.476562 -6.226562 2.226562 -5.675781 2.125 -4.96875 Z M 7.75 -1.140625 C 7.570312 -0.929688 7.359375 -0.742188 7.109375 -0.578125 C 6.867188 -0.421875 6.601562 -0.289062 6.3125 -0.1875 C 6.03125 -0.09375 5.738281 -0.0195312 5.4375 0.03125 C 5.144531 0.0820312 4.847656 0.109375 4.546875 0.109375 C 3.984375 0.109375 3.460938 0.015625 2.984375 -0.171875 C 2.515625 -0.359375 2.109375 -0.632812 1.765625 -1 C 1.421875 -1.375 1.148438 -1.832031 0.953125 -2.375 C 0.765625 -2.914062 0.671875 -3.535156 0.671875 -4.234375 C 0.671875 -4.804688 0.753906 -5.335938 0.921875 -5.828125 C 1.097656 -6.328125 1.347656 -6.753906 1.671875 -7.109375 C 2.003906 -7.472656 2.40625 -7.757812 2.875 -7.96875 C 3.351562 -8.175781 3.882812 -8.28125 4.46875 -8.28125 C 4.957031 -8.28125 5.410156 -8.195312 5.828125 -8.03125 C 6.242188 -7.875 6.601562 -7.640625 6.90625 -7.328125 C 7.207031 -7.015625 7.441406 -6.628906 7.609375 -6.171875 C 7.785156 -5.722656 7.875 -5.210938 7.875 -4.640625 C 7.875 -4.410156 7.847656 -4.257812 7.796875 -4.1875 C 7.753906 -4.113281 7.664062 -4.078125 7.53125 -4.078125 L 2.078125 -4.078125 C 2.097656 -3.554688 2.171875 -3.101562 2.296875 -2.71875 C 2.421875 -2.34375 2.59375 -2.023438 2.8125 -1.765625 C 3.039062 -1.515625 3.3125 -1.328125 3.625 -1.203125 C 3.9375 -1.078125 4.285156 -1.015625 4.671875 -1.015625 C 5.035156 -1.015625 5.347656 -1.054688 5.609375 -1.140625 C 5.867188 -1.222656 6.09375 -1.3125 6.28125 -1.40625 C 6.46875 -1.5 6.625 -1.585938 6.75 -1.671875 C 6.875 -1.753906 6.984375 -1.796875 7.078125 -1.796875 C 7.191406 -1.796875 7.28125 -1.753906 7.34375 -1.671875 Z M 7.75 -1.140625 "/></g></g><g style="fill:#58595b;fill-opacity:1;"><g transform="translate(161.505387, 310.655627)"><path style="stroke:none" d="M 6.453125 -6.21875 C 6.179688 -6.570312 5.890625 -6.816406 5.578125 -6.953125 C 5.265625 -7.097656 4.914062 -7.171875 4.53125 -7.171875 C 3.769531 -7.171875 3.1875 -6.898438 2.78125 -6.359375 C 2.375 -5.816406 2.171875 -5.046875 2.171875 -4.046875 C 2.171875 -3.515625 2.21875 -3.054688 2.3125 -2.671875 C 2.40625 -2.296875 2.539062 -1.988281 2.71875 -1.75 C 2.894531 -1.507812 3.109375 -1.332031 3.359375 -1.21875 C 3.617188 -1.101562 3.910156 -1.046875 4.234375 -1.046875 C 4.710938 -1.046875 5.125 -1.148438 5.46875 -1.359375 C 5.820312 -1.578125 6.148438 -1.882812 6.453125 -2.28125 Z M 7.875 -11.859375 L 7.875 0 L 7.03125 0 C 6.820312 0 6.691406 -0.0976562 6.640625 -0.296875 L 6.515625 -1.28125 C 6.160156 -0.863281 5.757812 -0.523438 5.3125 -0.265625 C 4.875 -0.015625 4.363281 0.109375 3.78125 0.109375 C 3.3125 0.109375 2.882812 0.0195312 2.5 -0.15625 C 2.125 -0.332031 1.800781 -0.59375 1.53125 -0.9375 C 1.257812 -1.289062 1.050781 -1.726562 0.90625 -2.25 C 0.757812 -2.769531 0.6875 -3.367188 0.6875 -4.046875 C 0.6875 -4.648438 0.765625 -5.207031 0.921875 -5.71875 C 1.085938 -6.238281 1.320312 -6.6875 1.625 -7.0625 C 1.925781 -7.445312 2.296875 -7.75 2.734375 -7.96875 C 3.171875 -8.1875 3.660156 -8.296875 4.203125 -8.296875 C 4.703125 -8.296875 5.128906 -8.210938 5.484375 -8.046875 C 5.847656 -7.878906 6.171875 -7.644531 6.453125 -7.34375 L 6.453125 -11.859375 Z M 7.875 -11.859375 "/></g></g><g style="fill:#58595b;fill-opacity:1;"><g transform="translate(170.516896, 310.655627)"><path style="stroke:none" d="M 2.640625 -8.15625 L 2.640625 0 L 1.21875 0 L 1.21875 -8.15625 Z M 2.953125 -10.703125 C 2.953125 -10.566406 2.921875 -10.4375 2.859375 -10.3125 C 2.804688 -10.195312 2.734375 -10.09375 2.640625 -10 C 2.546875 -9.90625 2.4375 -9.832031 2.3125 -9.78125 C 2.1875 -9.726562 2.054688 -9.703125 1.921875 -9.703125 C 1.773438 -9.703125 1.640625 -9.726562 1.515625 -9.78125 C 1.398438 -9.832031 1.296875 -9.90625 1.203125 -10 C 1.109375 -10.09375 1.035156 -10.195312 0.984375 -10.3125 C 0.929688 -10.4375 0.90625 -10.566406 0.90625 -10.703125 C 0.90625 -10.847656 0.929688 -10.984375 0.984375 -11.109375 C 1.035156 -11.234375 1.109375 -11.34375 1.203125 -11.4375 C 1.296875 -11.53125 1.398438 -11.601562 1.515625 -11.65625 C 1.640625 -11.707031 1.773438 -11.734375 1.921875 -11.734375 C 2.054688 -11.734375 2.1875 -11.707031 2.3125 -11.65625 C 2.4375 -11.601562 2.546875 -11.53125 2.640625 -11.4375 C 2.734375 -11.34375 2.804688 -11.234375 2.859375 -11.109375 C 2.921875 -10.984375 2.953125 -10.847656 2.953125 -10.703125 Z M 2.953125 -10.703125 "/></g></g><g style="fill:#58595b;fill-opacity:1;"><g transform="translate(174.378975, 310.655627)"><path style="stroke:none" d="M 6.8125 -6.703125 C 6.769531 -6.640625 6.722656 -6.59375 6.671875 -6.5625 C 6.628906 -6.53125 6.570312 -6.515625 6.5 -6.515625 C 6.414062 -6.515625 6.328125 -6.546875 6.234375 -6.609375 C 6.140625 -6.679688 6.019531 -6.753906 5.875 -6.828125 C 5.738281 -6.910156 5.566406 -6.984375 5.359375 -7.046875 C 5.148438 -7.117188 4.894531 -7.15625 4.59375 -7.15625 C 4.1875 -7.15625 3.832031 -7.082031 3.53125 -6.9375 C 3.226562 -6.800781 2.972656 -6.597656 2.765625 -6.328125 C 2.554688 -6.066406 2.398438 -5.742188 2.296875 -5.359375 C 2.191406 -4.972656 2.140625 -4.546875 2.140625 -4.078125 C 2.140625 -3.585938 2.195312 -3.148438 2.3125 -2.765625 C 2.425781 -2.378906 2.582031 -2.054688 2.78125 -1.796875 C 2.988281 -1.535156 3.238281 -1.335938 3.53125 -1.203125 C 3.820312 -1.066406 4.148438 -1 4.515625 -1 C 4.867188 -1 5.15625 -1.039062 5.375 -1.125 C 5.601562 -1.207031 5.789062 -1.296875 5.9375 -1.390625 C 6.082031 -1.492188 6.207031 -1.585938 6.3125 -1.671875 C 6.414062 -1.753906 6.515625 -1.796875 6.609375 -1.796875 C 6.722656 -1.796875 6.8125 -1.753906 6.875 -1.671875 L 7.28125 -1.140625 C 7.101562 -0.921875 6.898438 -0.734375 6.671875 -0.578125 C 6.453125 -0.421875 6.210938 -0.289062 5.953125 -0.1875 C 5.691406 -0.0820312 5.414062 -0.0078125 5.125 0.03125 C 4.84375 0.0820312 4.554688 0.109375 4.265625 0.109375 C 3.753906 0.109375 3.28125 0.015625 2.84375 -0.171875 C 2.40625 -0.359375 2.023438 -0.628906 1.703125 -0.984375 C 1.378906 -1.335938 1.125 -1.773438 0.9375 -2.296875 C 0.757812 -2.816406 0.671875 -3.410156 0.671875 -4.078125 C 0.671875 -4.679688 0.753906 -5.238281 0.921875 -5.75 C 1.097656 -6.269531 1.347656 -6.71875 1.671875 -7.09375 C 1.992188 -7.46875 2.390625 -7.757812 2.859375 -7.96875 C 3.335938 -8.175781 3.882812 -8.28125 4.5 -8.28125 C 5.082031 -8.28125 5.585938 -8.1875 6.015625 -8 C 6.453125 -7.8125 6.84375 -7.550781 7.1875 -7.21875 Z M 6.8125 -6.703125 "/></g></g><g style="fill:#58595b;fill-opacity:1;"><g transform="translate(182.062888, 310.655627)"><path style="stroke:none" d="M 5.546875 -3.671875 C 4.890625 -3.648438 4.328125 -3.597656 3.859375 -3.515625 C 3.398438 -3.429688 3.023438 -3.320312 2.734375 -3.1875 C 2.441406 -3.050781 2.226562 -2.890625 2.09375 -2.703125 C 1.96875 -2.523438 1.90625 -2.320312 1.90625 -2.09375 C 1.90625 -1.882812 1.9375 -1.703125 2 -1.546875 C 2.070312 -1.390625 2.164062 -1.257812 2.28125 -1.15625 C 2.40625 -1.0625 2.550781 -0.988281 2.71875 -0.9375 C 2.882812 -0.894531 3.0625 -0.875 3.25 -0.875 C 3.5 -0.875 3.726562 -0.898438 3.9375 -0.953125 C 4.144531 -1.003906 4.335938 -1.078125 4.515625 -1.171875 C 4.703125 -1.265625 4.878906 -1.378906 5.046875 -1.515625 C 5.222656 -1.648438 5.390625 -1.804688 5.546875 -1.984375 Z M 0.921875 -7 C 1.367188 -7.4375 1.851562 -7.757812 2.375 -7.96875 C 2.894531 -8.1875 3.472656 -8.296875 4.109375 -8.296875 C 4.566406 -8.296875 4.972656 -8.21875 5.328125 -8.0625 C 5.679688 -7.914062 5.976562 -7.707031 6.21875 -7.4375 C 6.457031 -7.175781 6.640625 -6.851562 6.765625 -6.46875 C 6.890625 -6.082031 6.953125 -5.664062 6.953125 -5.21875 L 6.953125 0 L 6.3125 0 C 6.175781 0 6.066406 -0.0195312 5.984375 -0.0625 C 5.910156 -0.113281 5.851562 -0.207031 5.8125 -0.34375 L 5.65625 -1.109375 C 5.4375 -0.910156 5.222656 -0.734375 5.015625 -0.578125 C 4.816406 -0.429688 4.601562 -0.304688 4.375 -0.203125 C 4.15625 -0.0976562 3.914062 -0.0195312 3.65625 0.03125 C 3.40625 0.09375 3.125 0.125 2.8125 0.125 C 2.5 0.125 2.203125 0.0820312 1.921875 0 C 1.640625 -0.09375 1.394531 -0.226562 1.1875 -0.40625 C 0.988281 -0.582031 0.828125 -0.804688 0.703125 -1.078125 C 0.578125 -1.347656 0.515625 -1.664062 0.515625 -2.03125 C 0.515625 -2.351562 0.601562 -2.660156 0.78125 -2.953125 C 0.957031 -3.253906 1.242188 -3.519531 1.640625 -3.75 C 2.046875 -3.988281 2.566406 -4.179688 3.203125 -4.328125 C 3.835938 -4.472656 4.617188 -4.554688 5.546875 -4.578125 L 5.546875 -5.21875 C 5.546875 -5.84375 5.410156 -6.316406 5.140625 -6.640625 C 4.867188 -6.972656 4.46875 -7.140625 3.9375 -7.140625 C 3.582031 -7.140625 3.285156 -7.09375 3.046875 -7 C 2.816406 -6.914062 2.613281 -6.816406 2.4375 -6.703125 C 2.257812 -6.597656 2.109375 -6.5 1.984375 -6.40625 C 1.859375 -6.320312 1.734375 -6.28125 1.609375 -6.28125 C 1.515625 -6.28125 1.429688 -6.300781 1.359375 -6.34375 C 1.285156 -6.394531 1.226562 -6.460938 1.1875 -6.546875 Z M 0.921875 -7 "/></g></g><g style="fill:#58595b;fill-opacity:1;"><g transform="translate(190.060594, 310.655627)"><path style="stroke:none" d="M 2.609375 -11.859375 L 2.609375 0 L 1.1875 0 L 1.1875 -11.859375 Z M 2.609375 -11.859375 "/></g></g><g style="fill:#58595b;fill-opacity:1;"><g transform="translate(193.858304, 310.655627)"><path style="stroke:none" d=""/></g></g><g style="fill:#58595b;fill-opacity:1;"><g transform="translate(197.977848, 310.655627)"><path style="stroke:none" d="M 9.5625 -2.375 C 9.65625 -2.375 9.734375 -2.34375 9.796875 -2.28125 L 10.40625 -1.609375 C 9.9375 -1.054688 9.363281 -0.628906 8.6875 -0.328125 C 8.019531 -0.0234375 7.207031 0.125 6.25 0.125 C 5.425781 0.125 4.675781 -0.015625 4 -0.296875 C 3.320312 -0.585938 2.742188 -0.988281 2.265625 -1.5 C 1.785156 -2.019531 1.414062 -2.640625 1.15625 -3.359375 C 0.894531 -4.085938 0.765625 -4.890625 0.765625 -5.765625 C 0.765625 -6.628906 0.898438 -7.421875 1.171875 -8.140625 C 1.441406 -8.867188 1.828125 -9.492188 2.328125 -10.015625 C 2.828125 -10.535156 3.421875 -10.9375 4.109375 -11.21875 C 4.804688 -11.507812 5.570312 -11.65625 6.40625 -11.65625 C 7.226562 -11.65625 7.953125 -11.523438 8.578125 -11.265625 C 9.203125 -11.003906 9.753906 -10.648438 10.234375 -10.203125 L 9.71875 -9.484375 C 9.6875 -9.429688 9.644531 -9.382812 9.59375 -9.34375 C 9.539062 -9.3125 9.472656 -9.296875 9.390625 -9.296875 C 9.296875 -9.296875 9.175781 -9.347656 9.03125 -9.453125 C 8.894531 -9.554688 8.710938 -9.671875 8.484375 -9.796875 C 8.265625 -9.929688 7.984375 -10.050781 7.640625 -10.15625 C 7.304688 -10.257812 6.890625 -10.3125 6.390625 -10.3125 C 5.796875 -10.3125 5.25 -10.207031 4.75 -10 C 4.257812 -9.789062 3.835938 -9.488281 3.484375 -9.09375 C 3.128906 -8.707031 2.851562 -8.234375 2.65625 -7.671875 C 2.457031 -7.109375 2.359375 -6.472656 2.359375 -5.765625 C 2.359375 -5.046875 2.460938 -4.40625 2.671875 -3.84375 C 2.878906 -3.28125 3.160156 -2.800781 3.515625 -2.40625 C 3.867188 -2.019531 4.285156 -1.722656 4.765625 -1.515625 C 5.253906 -1.316406 5.78125 -1.21875 6.34375 -1.21875 C 6.6875 -1.21875 6.992188 -1.234375 7.265625 -1.265625 C 7.546875 -1.304688 7.800781 -1.367188 8.03125 -1.453125 C 8.269531 -1.546875 8.488281 -1.65625 8.6875 -1.78125 C 8.894531 -1.914062 9.097656 -2.078125 9.296875 -2.265625 C 9.390625 -2.335938 9.476562 -2.375 9.5625 -2.375 Z M 9.5625 -2.375 "/></g></g><g style="fill:#58595b;fill-opacity:1;"><g transform="translate(208.727282, 310.655627)"><path style="stroke:none" d="M 2.609375 -11.859375 L 2.609375 0 L 1.1875 0 L 1.1875 -11.859375 Z M 2.609375 -11.859375 "/></g></g><g style="fill:#58595b;fill-opacity:1;"><g transform="translate(212.524992, 310.655627)"><path style="stroke:none" d="M 2.640625 -8.15625 L 2.640625 0 L 1.21875 0 L 1.21875 -8.15625 Z M 2.953125 -10.703125 C 2.953125 -10.566406 2.921875 -10.4375 2.859375 -10.3125 C 2.804688 -10.195312 2.734375 -10.09375 2.640625 -10 C 2.546875 -9.90625 2.4375 -9.832031 2.3125 -9.78125 C 2.1875 -9.726562 2.054688 -9.703125 1.921875 -9.703125 C 1.773438 -9.703125 1.640625 -9.726562 1.515625 -9.78125 C 1.398438 -9.832031 1.296875 -9.90625 1.203125 -10 C 1.109375 -10.09375 1.035156 -10.195312 0.984375 -10.3125 C 0.929688 -10.4375 0.90625 -10.566406 0.90625 -10.703125 C 0.90625 -10.847656 0.929688 -10.984375 0.984375 -11.109375 C 1.035156 -11.234375 1.109375 -11.34375 1.203125 -11.4375 C 1.296875 -11.53125 1.398438 -11.601562 1.515625 -11.65625 C 1.640625 -11.707031 1.773438 -11.734375 1.921875 -11.734375 C 2.054688 -11.734375 2.1875 -11.707031 2.3125 -11.65625 C 2.4375 -11.601562 2.546875 -11.53125 2.640625 -11.4375 C 2.734375 -11.34375 2.804688 -11.234375 2.859375 -11.109375 C 2.921875 -10.984375 2.953125 -10.847656 2.953125 -10.703125 Z M 2.953125 -10.703125 "/></g></g><g style="fill:#58595b;fill-opacity:1;"><g transform="translate(216.387071, 310.655627)"><path style="stroke:none" d="M 2.484375 -6.96875 C 2.660156 -7.164062 2.847656 -7.34375 3.046875 -7.5 C 3.242188 -7.664062 3.453125 -7.804688 3.671875 -7.921875 C 3.898438 -8.035156 4.140625 -8.125 4.390625 -8.1875 C 4.640625 -8.25 4.910156 -8.28125 5.203125 -8.28125 C 5.640625 -8.28125 6.03125 -8.207031 6.375 -8.0625 C 6.71875 -7.914062 7.003906 -7.707031 7.234375 -7.4375 C 7.460938 -7.164062 7.632812 -6.835938 7.75 -6.453125 C 7.863281 -6.066406 7.921875 -5.644531 7.921875 -5.1875 L 7.921875 0 L 6.484375 0 L 6.484375 -5.1875 C 6.484375 -5.800781 6.34375 -6.28125 6.0625 -6.625 C 5.78125 -6.96875 5.351562 -7.140625 4.78125 -7.140625 C 4.351562 -7.140625 3.957031 -7.035156 3.59375 -6.828125 C 3.226562 -6.628906 2.890625 -6.351562 2.578125 -6 L 2.578125 0 L 1.140625 0 L 1.140625 -8.15625 L 2 -8.15625 C 2.195312 -8.15625 2.320312 -8.054688 2.375 -7.859375 Z M 2.484375 -6.96875 "/></g></g><g style="fill:#58595b;fill-opacity:1;"><g transform="translate(225.366389, 310.655627)"><path style="stroke:none" d="M 2.640625 -8.15625 L 2.640625 0 L 1.21875 0 L 1.21875 -8.15625 Z M 2.953125 -10.703125 C 2.953125 -10.566406 2.921875 -10.4375 2.859375 -10.3125 C 2.804688 -10.195312 2.734375 -10.09375 2.640625 -10 C 2.546875 -9.90625 2.4375 -9.832031 2.3125 -9.78125 C 2.1875 -9.726562 2.054688 -9.703125 1.921875 -9.703125 C 1.773438 -9.703125 1.640625 -9.726562 1.515625 -9.78125 C 1.398438 -9.832031 1.296875 -9.90625 1.203125 -10 C 1.109375 -10.09375 1.035156 -10.195312 0.984375 -10.3125 C 0.929688 -10.4375 0.90625 -10.566406 0.90625 -10.703125 C 0.90625 -10.847656 0.929688 -10.984375 0.984375 -11.109375 C 1.035156 -11.234375 1.109375 -11.34375 1.203125 -11.4375 C 1.296875 -11.53125 1.398438 -11.601562 1.515625 -11.65625 C 1.640625 -11.707031 1.773438 -11.734375 1.921875 -11.734375 C 2.054688 -11.734375 2.1875 -11.707031 2.3125 -11.65625 C 2.4375 -11.601562 2.546875 -11.53125 2.640625 -11.4375 C 2.734375 -11.34375 2.804688 -11.234375 2.859375 -11.109375 C 2.921875 -10.984375 2.953125 -10.847656 2.953125 -10.703125 Z M 2.953125 -10.703125 "/></g></g><g style="fill:#58595b;fill-opacity:1;"><g transform="translate(229.228468, 310.655627)"><path style="stroke:none" d="M 6.8125 -6.703125 C 6.769531 -6.640625 6.722656 -6.59375 6.671875 -6.5625 C 6.628906 -6.53125 6.570312 -6.515625 6.5 -6.515625 C 6.414062 -6.515625 6.328125 -6.546875 6.234375 -6.609375 C 6.140625 -6.679688 6.019531 -6.753906 5.875 -6.828125 C 5.738281 -6.910156 5.566406 -6.984375 5.359375 -7.046875 C 5.148438 -7.117188 4.894531 -7.15625 4.59375 -7.15625 C 4.1875 -7.15625 3.832031 -7.082031 3.53125 -6.9375 C 3.226562 -6.800781 2.972656 -6.597656 2.765625 -6.328125 C 2.554688 -6.066406 2.398438 -5.742188 2.296875 -5.359375 C 2.191406 -4.972656 2.140625 -4.546875 2.140625 -4.078125 C 2.140625 -3.585938 2.195312 -3.148438 2.3125 -2.765625 C 2.425781 -2.378906 2.582031 -2.054688 2.78125 -1.796875 C 2.988281 -1.535156 3.238281 -1.335938 3.53125 -1.203125 C 3.820312 -1.066406 4.148438 -1 4.515625 -1 C 4.867188 -1 5.15625 -1.039062 5.375 -1.125 C 5.601562 -1.207031 5.789062 -1.296875 5.9375 -1.390625 C 6.082031 -1.492188 6.207031 -1.585938 6.3125 -1.671875 C 6.414062 -1.753906 6.515625 -1.796875 6.609375 -1.796875 C 6.722656 -1.796875 6.8125 -1.753906 6.875 -1.671875 L 7.28125 -1.140625 C 7.101562 -0.921875 6.898438 -0.734375 6.671875 -0.578125 C 6.453125 -0.421875 6.210938 -0.289062 5.953125 -0.1875 C 5.691406 -0.0820312 5.414062 -0.0078125 5.125 0.03125 C 4.84375 0.0820312 4.554688 0.109375 4.265625 0.109375 C 3.753906 0.109375 3.28125 0.015625 2.84375 -0.171875 C 2.40625 -0.359375 2.023438 -0.628906 1.703125 -0.984375 C 1.378906 -1.335938 1.125 -1.773438 0.9375 -2.296875 C 0.757812 -2.816406 0.671875 -3.410156 0.671875 -4.078125 C 0.671875 -4.679688 0.753906 -5.238281 0.921875 -5.75 C 1.097656 -6.269531 1.347656 -6.71875 1.671875 -7.09375 C 1.992188 -7.46875 2.390625 -7.757812 2.859375 -7.96875 C 3.335938 -8.175781 3.882812 -8.28125 4.5 -8.28125 C 5.082031 -8.28125 5.585938 -8.1875 6.015625 -8 C 6.453125 -7.8125 6.84375 -7.550781 7.1875 -7.21875 Z M 6.8125 -6.703125 "/></g></g></g></svg>