<svg xmlns="http://www.w3.org/2000/svg" xmlns:xlink="http://www.w3.org/1999/xlink" width="3000" zoomAndPan="magnify" viewBox="0 0 2250 2250.000011" height="3000" preserveAspectRatio="xMidYMid meet" version="1.2"><g id="75580c3e1b"><path style=" stroke:none;fill-rule:nonzero;fill:#018ede;fill-opacity:1;" d="M 853.304688 1272.902344 C 743.523438 1089.3125 803.371094 851.492188 986.957031 741.710938 C 1121.578125 661.210938 1284.609375 673.558594 1405.65625 757.40625 C 1275.863281 645.589844 1087.320312 619.527344 932.230469 712.242188 C 738.417969 828.097656 675.222656 1079.164062 791.132812 1272.9375 C 883.851562 1428.082031 1062.28125 1494.296875 1229.570312 1457.257812 C 1083.257812 1473.773438 933.785156 1407.503906 853.304688 1272.902344 Z M 853.304688 1272.902344 "/><path style=" stroke:none;fill-rule:nonzero;fill:#0255a3;fill-opacity:1;" d="M 1522.664062 1232.84375 C 1524.164062 1223.917969 1521.695312 1215.027344 1513.757812 1206.101562 C 1494.003906 1184.792969 1445.953125 1219.453125 1445.953125 1219.453125 C 1445.460938 1219.949219 1444.984375 1220.441406 1444.488281 1220.441406 C 1507.320312 1120.464844 1518.714844 994.75 1454.878906 887.800781 C 1388.023438 775.933594 1245.976562 715.554688 1123.703125 723.492188 C 1270.742188 693.277344 1426.636719 752.667969 1507.832031 888.824219 C 1573.148438 997.730469 1574.648438 1126.921875 1522.664062 1232.84375 Z M 1522.664062 1232.84375 "/><path style=" stroke:none;fill-rule:nonzero;fill:#0255a3;fill-opacity:1;" d="M 1446.445312 1241.734375 C 1434.0625 1251.136719 1422.191406 1259.566406 1410.796875 1266.976562 C 1321.738281 1325.398438 1260.828125 1330.335938 1221.230469 1318.957031 C 1172.703125 1304.125 1155.382812 1263.480469 1155.382812 1263.480469 C 1306.355469 1308.058594 1328.652344 1285.320312 1331.617188 1268.476562 C 1333.574219 1259.566406 1330.117188 1251.609375 1319.195312 1246.691406 C 1315.777344 1245.191406 1311.292969 1243.234375 1306.847656 1241.734375 C 1252.378906 1220.425781 1144.003906 1186.3125 1144.003906 1186.3125 C 1035.191406 1142.449219 963.289062 1182.746094 922.445312 1218.15625 C 903.878906 1192.347656 888.753906 1163.300781 878.785156 1130.726562 C 840.71875 1006.109375 891.296875 860.253906 979.21875 774.964844 C 858.207031 863.675781 796.949219 1019.332031 844.03125 1170.710938 C 856.578125 1211.023438 883.449219 1254.921875 883.449219 1254.921875 C 977.410156 1410.414062 1132.808594 1442.585938 1226.148438 1435.765625 C 1380.304688 1424.535156 1517.234375 1299.113281 1501.867188 1231.378906 C 1496.546875 1207.785156 1446.445312 1241.734375 1446.445312 1241.734375 Z M 1446.445312 1241.734375 "/><path style=" stroke:none;fill-rule:nonzero;fill:#018ede;fill-opacity:1;" d="M 1077.589844 1150.605469 C 1098.238281 1153.09375 1120.097656 1157.941406 1143.949219 1167.542969 C 1143.949219 1167.542969 1182.800781 1179.78125 1225.527344 1194.140625 L 1225.527344 1113.640625 L 1383.707031 1113.640625 L 1383.707031 969.195312 L 1225.527344 969.195312 L 1225.527344 810.980469 L 1077.589844 810.980469 L 1077.589844 969.195312 L 919.425781 969.195312 L 919.425781 1113.640625 L 1077.589844 1113.640625 Z M 1077.589844 1150.605469 "/></g></svg>